<svg xmlns="http://www.w3.org/2000/svg" xmlns:xlink="http://www.w3.org/1999/xlink" width="500" zoomAndPan="magnify" viewBox="0 0 375 374.999991" height="500" preserveAspectRatio="xMidYMid meet" version="1.0"><defs><g/><clipPath id="da30c42710"><path d="M 103.945312 154 L 207 154 L 207 176 L 103.945312 176 Z M 103.945312 154 " clip-rule="nonzero"/></clipPath><clipPath id="4c941a3d69"><path d="M 237 105 L 272.695312 105 L 272.695312 146 L 237 146 Z M 237 105 " clip-rule="nonzero"/></clipPath><clipPath id="11d593aea0"><path d="M 168 79.90625 L 217 79.90625 L 217 163 L 168 163 Z M 168 79.90625 " clip-rule="nonzero"/></clipPath><clipPath id="844cfaef9b"><rect x="0" width="177" y="0" height="94"/></clipPath><clipPath id="02f4bffc3f"><path d="M 50 0.359375 L 59 0.359375 L 59 11 L 50 11 Z M 50 0.359375 " clip-rule="nonzero"/></clipPath><clipPath id="0f064f49a4"><rect x="0" width="117" y="0" height="14"/></clipPath></defs><rect x="-37.5" width="450" fill="#ffffff" y="-37.499999" height="449.999989" fill-opacity="1"/><rect x="-37.5" width="450" fill="#ffffff" y="-37.499999" height="449.999989" fill-opacity="1"/><g clip-path="url(#da30c42710)"><path fill="#00315d" d="M 206.289062 168.863281 C 206.289062 168.863281 187.589844 173.652344 160 162.011719 C 127.003906 148.082031 110.355469 157.570312 103.945312 164.628906 C 103.945312 164.628906 118.363281 154.855469 142.429688 163.015625 C 166.996094 171.347656 184.960938 182.367188 206.289062 168.863281 Z M 206.289062 168.863281 " fill-opacity="1" fill-rule="nonzero"/></g><path fill="#00315d" d="M 204.8125 176.582031 C 181.726562 187.21875 162.230469 178.167969 162.230469 178.167969 C 182.804688 197.304688 218.695312 179.066406 237.191406 166.253906 C 252.015625 155.992188 268.480469 154.421875 268.480469 154.421875 C 233.898438 148.175781 231.9375 164.085938 204.8125 176.582031 Z M 204.8125 176.582031 " fill-opacity="1" fill-rule="nonzero"/><path fill="#00315d" d="M 237.34375 109.648438 C 237.34375 109.648438 237.121094 148.347656 205.863281 161.28125 C 205.863281 161.28125 228.941406 160.550781 239.628906 130.589844 C 243.359375 120.121094 245.984375 102.628906 254.804688 96.871094 C 254.804688 96.871094 228.402344 98.789062 217.007812 115.015625 C 218.03125 117.152344 218.921875 119.398438 219.613281 121.78125 C 221.875 119.121094 227.4375 113.609375 237.34375 109.648438 Z M 237.34375 109.648438 " fill-opacity="1" fill-rule="nonzero"/><g clip-path="url(#4c941a3d69)"><path fill="#00315d" d="M 247.28125 119.769531 C 247.910156 119.050781 250.335938 116.613281 254.804688 115.8125 C 254.804688 115.8125 254.765625 137.25 237.53125 145.925781 C 237.53125 145.925781 252.742188 144.378906 257.734375 126.597656 C 262.769531 108.65625 272.898438 105.683594 272.898438 105.683594 C 272.898438 105.683594 261.835938 103.867188 250.488281 109.820312 C 249.261719 113.015625 248.234375 116.4375 247.28125 119.769531 Z M 247.28125 119.769531 " fill-opacity="1" fill-rule="nonzero"/></g><g clip-path="url(#11d593aea0)"><path fill="#00315d" d="M 184.433594 162.164062 C 184.433594 162.164062 169.941406 148.035156 177.367188 127.390625 C 181.875 114.867188 192.867188 107.445312 192.867188 107.445312 C 192.867188 107.445312 203.863281 114.863281 208.371094 127.390625 C 215.796875 148.035156 201.304688 162.164062 201.304688 162.164062 C 201.304688 162.164062 214.980469 155.277344 216.578125 139.039062 C 218.164062 122.898438 208.957031 111.910156 202.898438 102.5 C 194.863281 90.023438 192.867188 79.910156 192.867188 79.910156 C 192.867188 79.910156 190.875 90.023438 182.839844 102.503906 C 176.78125 111.914062 167.578125 122.902344 169.160156 139.042969 C 170.753906 155.277344 184.433594 162.164062 184.433594 162.164062 Z M 184.433594 162.164062 " fill-opacity="1" fill-rule="nonzero"/></g><path fill="#00315d" d="M 146.105469 130.585938 C 156.792969 160.546875 179.871094 161.277344 179.871094 161.277344 C 148.613281 148.34375 148.386719 109.644531 148.386719 109.644531 C 158.292969 113.605469 163.855469 119.117188 166.121094 121.769531 C 166.808594 119.390625 167.703125 117.144531 168.722656 115.007812 C 157.332031 98.78125 130.929688 96.863281 130.929688 96.863281 C 139.753906 102.625 142.371094 120.117188 146.105469 130.585938 Z M 146.105469 130.585938 " fill-opacity="1" fill-rule="nonzero"/><path fill="#00315d" d="M 128 126.59375 C 132.992188 144.378906 148.203125 145.921875 148.203125 145.921875 C 130.972656 137.246094 130.933594 115.808594 130.933594 115.808594 C 135.402344 116.609375 137.824219 119.046875 138.453125 119.765625 C 137.5 116.433594 136.472656 113.011719 135.253906 109.8125 C 123.902344 103.867188 112.839844 105.683594 112.839844 105.683594 C 112.839844 105.683594 122.964844 108.652344 128 126.59375 Z M 128 126.59375 " fill-opacity="1" fill-rule="nonzero"/><g transform="matrix(1, 0, 0, 1, 99, 164)"><g clip-path="url(#844cfaef9b)"><g fill="#00315d" fill-opacity="1"><g transform="translate(1.609228, 71.910207)"><g><path d="M 7.046875 -44.5625 C 6.367188 -46.15625 5.472656 -47.257812 4.359375 -47.875 C 3.253906 -48.5 1.957031 -48.835938 0.46875 -48.890625 L 0.46875 -50.125 L 20.03125 -50.125 L 20.03125 -48.890625 C 19.101562 -48.835938 18.125 -48.628906 17.09375 -48.265625 C 16.0625 -47.910156 15.546875 -47.113281 15.546875 -45.875 C 15.546875 -45.257812 15.675781 -44.691406 15.9375 -44.171875 L 30.71875 -8.4375 L 44.328125 -41.84375 C 44.484375 -42.207031 44.597656 -42.632812 44.671875 -43.125 C 44.753906 -43.613281 44.796875 -44.039062 44.796875 -44.40625 C 44.796875 -45.851562 44.367188 -46.882812 43.515625 -47.5 C 42.660156 -48.113281 41.640625 -48.5 40.453125 -48.65625 C 39.273438 -48.8125 38.144531 -48.890625 37.0625 -48.890625 L 37.0625 -50.125 L 54.6875 -50.125 L 54.6875 -48.8125 C 52.675781 -48.65625 51 -47.984375 49.65625 -46.796875 C 48.320312 -45.609375 47.269531 -44.113281 46.5 -42.3125 L 28.546875 0 L 25.609375 0 Z M 7.046875 -44.5625 "/></g></g></g><g fill="#00315d" fill-opacity="1"><g transform="translate(54.292196, 71.910207)"><g><path d="M 18.03125 0 L 0.390625 0 L 0.390625 -1.3125 C 2.398438 -1.46875 4.085938 -2.140625 5.453125 -3.328125 C 6.816406 -4.515625 7.890625 -6.007812 8.671875 -7.8125 L 26.53125 -50.125 L 28.703125 -50.125 L 47.265625 -5.5625 C 47.835938 -4.125 48.585938 -3.066406 49.515625 -2.390625 C 50.441406 -1.722656 51.625 -1.363281 53.0625 -1.3125 L 53.0625 0 L 34.34375 0 L 34.34375 -1.234375 C 35.269531 -1.335938 36.234375 -1.554688 37.234375 -1.890625 C 38.242188 -2.222656 38.75 -3.007812 38.75 -4.25 C 38.75 -4.5625 38.722656 -4.867188 38.671875 -5.171875 C 38.628906 -5.484375 38.554688 -5.742188 38.453125 -5.953125 L 32.71875 -19.734375 L 15.390625 -19.734375 L 10.75 -8.28125 C 10.59375 -7.914062 10.472656 -7.488281 10.390625 -7 C 10.316406 -6.507812 10.28125 -6.082031 10.28125 -5.71875 C 10.28125 -4.332031 10.707031 -3.328125 11.5625 -2.703125 C 12.414062 -2.085938 13.445312 -1.6875 14.65625 -1.5 C 15.875 -1.320312 17 -1.234375 18.03125 -1.234375 Z M 23.984375 -40.6875 L 15.9375 -20.96875 L 32.1875 -20.96875 Z M 23.984375 -40.6875 "/></g></g></g><g fill="#00315d" fill-opacity="1"><g transform="translate(105.273219, 71.910207)"><g><path d="M 0.546875 -50.125 L 17.40625 -50.125 L 17.40625 -48.890625 C 16.21875 -48.835938 15.1875 -48.488281 14.3125 -47.84375 C 13.4375 -47.195312 13 -46.128906 13 -44.640625 L 13.15625 -1.234375 L 19.796875 -1.234375 C 22.222656 -1.234375 24.632812 -1.566406 27.03125 -2.234375 C 29.4375 -2.910156 31.628906 -3.96875 33.609375 -5.40625 C 35.597656 -6.851562 37.160156 -8.765625 38.296875 -11.140625 L 39.53125 -11.0625 L 36.515625 0 L 0.546875 0 L 0.546875 -1.3125 C 1.734375 -1.363281 2.773438 -1.695312 3.671875 -2.3125 C 4.578125 -2.9375 5.03125 -4 5.03125 -5.5 L 5.03125 -44.640625 C 5.03125 -46.128906 4.578125 -47.195312 3.671875 -47.84375 C 2.773438 -48.488281 1.734375 -48.835938 0.546875 -48.890625 Z M 0.546875 -50.125 "/></g></g></g><g fill="#00315d" fill-opacity="1"><g transform="translate(143.566975, 71.910207)"><g><path d="M 2.015625 -50.125 L 18.875 -50.125 L 18.875 -48.890625 C 17.6875 -48.835938 16.65625 -48.488281 15.78125 -47.84375 C 14.90625 -47.195312 14.46875 -46.128906 14.46875 -44.640625 L 14.46875 -5.5 C 14.46875 -4 14.90625 -2.9375 15.78125 -2.3125 C 16.65625 -1.695312 17.6875 -1.363281 18.875 -1.3125 L 18.875 0 L 2.015625 0 L 2.015625 -1.3125 C 3.203125 -1.363281 4.242188 -1.695312 5.140625 -2.3125 C 6.046875 -2.9375 6.5 -4 6.5 -5.5 L 6.5 -44.640625 C 6.5 -46.128906 6.046875 -47.195312 5.140625 -47.84375 C 4.242188 -48.488281 3.203125 -48.835938 2.015625 -48.890625 Z M 2.015625 -50.125 "/></g></g></g><g fill="#00315d" fill-opacity="1"><g transform="translate(162.219051, 71.910207)"><g/></g></g></g></g><g transform="matrix(1, 0, 0, 1, 133, 243)"><g clip-path="url(#0f064f49a4)"><g fill="#004789" fill-opacity="1"><g transform="translate(1.611034, 9.872263)"><g><path d="M 6.90625 -8.703125 L 6.90625 -7.578125 L 2.421875 -7.578125 L 2.421875 -4.9375 L 6.421875 -4.9375 L 6.421875 -3.8125 L 2.421875 -3.8125 L 2.421875 -1.125 L 7.078125 -1.125 L 7.078125 0 L 1.25 0 L 1.25 -8.703125 Z M 6.90625 -8.703125 "/></g></g></g><g fill="#004789" fill-opacity="1"><g transform="translate(17.29957, 9.872263)"><g><path d="M 8.171875 -8.703125 L 4.328125 0.40625 L 0.5 -8.703125 L 1.875 -8.703125 L 4.375 -2.4375 L 6.796875 -8.703125 Z M 8.171875 -8.703125 "/></g></g></g><g fill="#004789" fill-opacity="1"><g transform="translate(33.782594, 9.872263)"><g><path d="M 6.90625 -8.703125 L 6.90625 -7.578125 L 2.421875 -7.578125 L 2.421875 -4.9375 L 6.421875 -4.9375 L 6.421875 -3.8125 L 2.421875 -3.8125 L 2.421875 -1.125 L 7.078125 -1.125 L 7.078125 0 L 1.25 0 L 1.25 -8.703125 Z M 6.90625 -8.703125 "/></g></g></g><g clip-path="url(#02f4bffc3f)"><g fill="#004789" fill-opacity="1"><g transform="translate(49.471129, 9.872263)"><g><path d="M 8.828125 -8.703125 L 8.828125 0.28125 L 8.796875 0.28125 L 2.40625 -6.203125 L 2.4375 0 L 1.25 0 L 1.25 -8.96875 L 1.3125 -8.96875 L 7.6875 -2.40625 L 7.65625 -8.703125 Z M 8.828125 -8.703125 "/></g></g></g></g><g fill="#004789" fill-opacity="1"><g transform="translate(67.386658, 9.872263)"><g><path d="M 6.390625 -8.703125 L 6.390625 -7.578125 L 4.046875 -7.578125 L 4.046875 0 L 2.890625 0 L 2.890625 -7.578125 L 0.609375 -7.578125 L 0.609375 -8.703125 Z M 6.390625 -8.703125 "/></g></g></g><g fill="#004789" fill-opacity="1"><g transform="translate(82.220497, 9.872263)"><g><path d="M 0.703125 -4.34375 C 0.703125 -5.132812 0.898438 -5.867188 1.296875 -6.546875 C 1.703125 -7.234375 2.242188 -7.78125 2.921875 -8.1875 C 3.609375 -8.59375 4.351562 -8.796875 5.15625 -8.796875 C 5.945312 -8.796875 6.679688 -8.59375 7.359375 -8.1875 C 8.046875 -7.78125 8.585938 -7.234375 8.984375 -6.546875 C 9.390625 -5.867188 9.59375 -5.132812 9.59375 -4.34375 C 9.59375 -3.539062 9.390625 -2.796875 8.984375 -2.109375 C 8.585938 -1.429688 8.046875 -0.894531 7.359375 -0.5 C 6.679688 -0.101562 5.945312 0.09375 5.15625 0.09375 C 4.351562 0.09375 3.609375 -0.0976562 2.921875 -0.484375 C 2.242188 -0.878906 1.703125 -1.414062 1.296875 -2.09375 C 0.898438 -2.769531 0.703125 -3.519531 0.703125 -4.34375 Z M 1.90625 -4.328125 C 1.90625 -3.734375 2.050781 -3.179688 2.34375 -2.671875 C 2.632812 -2.171875 3.03125 -1.769531 3.53125 -1.46875 C 4.03125 -1.175781 4.578125 -1.03125 5.171875 -1.03125 C 5.765625 -1.03125 6.304688 -1.175781 6.796875 -1.46875 C 7.296875 -1.757812 7.6875 -2.160156 7.96875 -2.671875 C 8.25 -3.179688 8.390625 -3.738281 8.390625 -4.34375 C 8.390625 -4.945312 8.242188 -5.503906 7.953125 -6.015625 C 7.671875 -6.523438 7.28125 -6.925781 6.78125 -7.21875 C 6.289062 -7.519531 5.75 -7.671875 5.15625 -7.671875 C 4.5625 -7.671875 4.015625 -7.519531 3.515625 -7.21875 C 3.015625 -6.925781 2.617188 -6.519531 2.328125 -6 C 2.046875 -5.488281 1.90625 -4.929688 1.90625 -4.328125 Z M 1.90625 -4.328125 "/></g></g></g><g fill="#004789" fill-opacity="1"><g transform="translate(100.364745, 9.872263)"><g><path d="M 5.75 -7.140625 C 5.4375 -7.316406 5.101562 -7.457031 4.75 -7.5625 C 4.394531 -7.664062 4.0625 -7.71875 3.75 -7.71875 C 3.28125 -7.71875 2.90625 -7.609375 2.625 -7.390625 C 2.351562 -7.179688 2.21875 -6.890625 2.21875 -6.515625 C 2.21875 -6.160156 2.378906 -5.867188 2.703125 -5.640625 C 3.023438 -5.410156 3.488281 -5.179688 4.09375 -4.953125 C 4.539062 -4.796875 4.914062 -4.625 5.21875 -4.4375 C 5.53125 -4.25 5.785156 -3.988281 5.984375 -3.65625 C 6.191406 -3.320312 6.296875 -2.894531 6.296875 -2.375 C 6.296875 -1.914062 6.179688 -1.492188 5.953125 -1.109375 C 5.722656 -0.734375 5.390625 -0.4375 4.953125 -0.21875 C 4.523438 -0.0078125 4.023438 0.09375 3.453125 0.09375 C 2.910156 0.09375 2.390625 0.0078125 1.890625 -0.15625 C 1.398438 -0.332031 0.96875 -0.550781 0.59375 -0.8125 L 1.109375 -1.75 C 1.398438 -1.519531 1.753906 -1.328125 2.171875 -1.171875 C 2.585938 -1.015625 2.976562 -0.9375 3.34375 -0.9375 C 3.8125 -0.9375 4.21875 -1.054688 4.5625 -1.296875 C 4.914062 -1.535156 5.09375 -1.894531 5.09375 -2.375 C 5.09375 -2.769531 4.945312 -3.085938 4.65625 -3.328125 C 4.363281 -3.566406 3.953125 -3.789062 3.421875 -4 C 2.929688 -4.175781 2.519531 -4.351562 2.1875 -4.53125 C 1.863281 -4.707031 1.585938 -4.953125 1.359375 -5.265625 C 1.128906 -5.578125 1.015625 -5.960938 1.015625 -6.421875 C 1.015625 -7.109375 1.25 -7.660156 1.71875 -8.078125 C 2.195312 -8.492188 2.816406 -8.71875 3.578125 -8.75 C 4.523438 -8.75 5.398438 -8.515625 6.203125 -8.046875 Z M 5.75 -7.140625 "/></g></g></g></g></g></svg>